# xmcd
#
# Track frame offsets:
#	182
#	13747
#	28050
#	42282
#	55987
#	72012
#	87440
#	100007
#	113232
#	124157
#	137602
#	151725
#	164392
#	177322
#	188037
#	206795
#	219870
#	234827
#	248855
#	264030
#
# Disc length: 3697 seconds
#
# Revision: 1
# Processed by: cddbd v1.5.1PL0 Copyright (c) Steve Scherf et al.
# Submitted via: audiograbber 1.83.01
#
DISCID=080e6f14
DTITLE=Rogers, Kenny and Dottie West - Sweet Harmony
DYEAR=1992
DGENRE=Country
TTITLE0=Every Time Two Fools Collide
TTITLE1=You Needed Me
TTITLE2=Another Somebody Done Somebody Wrong Song
TTITLE3=What Are We Doin' In Love
TTITLE4=Just the Way You Are
TTITLE5=Let It Be Me
TTITLE6=Why Don't We Go Somewhere and Love
TTITLE7=Together Again
TTITLE8=The Loving Gift
TTITLE9=You and Me
TTITLE10=All I Ever Need Is You
TTITLE11=Baby, I'm a Want You
TTITLE12=We Love Each Other
TTITLE13=Anyone Who Isn't Me Tonight
TTITLE14=You've Lost That Lovin' Feeling
TTITLE15=What's Wrong with Us Today
TTITLE16='Til I Can Make It on My Own
TTITLE17=That's the Way It Could Have Been
TTITLE18=Midnight Rider
TTITLE19=Let's Take the Long Way Around the World
EXTD=
EXTT0=
EXTT1=
EXTT2=
EXTT3=
EXTT4=
EXTT5=
EXTT6=
EXTT7=
EXTT8=
EXTT9=
EXTT10=
EXTT11=
EXTT12=
EXTT13=
EXTT14=
EXTT15=
EXTT16=
EXTT17=
EXTT18=
EXTT19=
PLAYORDER=
